<?xml version="1.0" encoding="utf-8"?>
<!-- Generator: Adobe Illustrator 24.0.1, SVG Export Plug-In . SVG Version: 6.00 Build 0)  -->
<svg version="1.1" id="Layer_1" xmlns="http://www.w3.org/2000/svg" xmlns:xlink="http://www.w3.org/1999/xlink" x="0px" y="0px"
	 width="1006px" height="280px" viewBox="0 0 1006 280" style="enable-background:new 0 0 1006 280;" xml:space="preserve">
<style type="text/css">
	.st0{fill:url(#SVGID_1_);}
	.st1{fill:url(#SVGID_2_);}
	.st2{fill:#18C472;}
	.st3{fill:url(#SVGID_3_);}
	.st4{fill:#1C2626;}
	.st5{fill:#626C68;}
</style>
<g>
	<g>
		
			<linearGradient id="SVGID_1_" gradientUnits="userSpaceOnUse" x1="99.9536" y1="142.2417" x2="144.4043" y2="254.5383" gradientTransform="matrix(1 0 0 -1 0 278)">
			<stop  offset="0" style="stop-color:#12877C"/>
			<stop  offset="1" style="stop-color:#02A284"/>
		</linearGradient>
		<path class="st0" d="M137.1,6.7c-34.2,0-65.4,20.1-79.5,51.1l-0.4,1c-4.8,11-7.3,22.7-7.3,34.8c0,15.3,4,30.3,11.7,43.4
			c7.6,13.2,18.8,24.2,32,31.8c-5.3-7.9-8.5-17.4-8.8-27.6c0-0.4,0-0.9,0-1.3c0-0.5,0-0.9,0-1.4c0.2-13.5,3.1-26.7,8.7-39.1l0.5-1
			c8.5-18.2,22.8-33.7,40.2-43.8c15-8.6,32-13.2,49.4-13.2c8.8,0,17.4,1.1,25.7,3.3C193.2,21.3,166.3,6.7,137.1,6.7z"/>
		
			<linearGradient id="SVGID_2_" gradientUnits="userSpaceOnUse" x1="147.1113" y1="193.089" x2="254.729" y2="122.9036" gradientTransform="matrix(1 0 0 -1 0 278)">
			<stop  offset="8.033988e-03" style="stop-color:#02A284"/>
			<stop  offset="1" style="stop-color:#18C472"/>
		</linearGradient>
		<path class="st1" d="M270.9,140.8c0-34.2-20.1-65.4-51.1-79.5l-1-0.4c-11-4.8-22.7-7.3-34.8-7.3c-15.3,0-30.3,4-43.4,11.7
			c-13.2,7.6-24.2,18.8-31.8,32c7.9-5.3,17.4-8.5,27.6-8.8c0.8,0,1.8,0,2.7,0c13.6,0.2,26.8,3.1,39.2,8.7l1,0.5
			c18.2,8.5,33.7,22.8,43.7,40.2c8.6,14.9,13.2,32,13.2,49.4c0,8.8-1.1,17.4-3.3,25.7C256.3,197,270.9,170,270.9,140.8z"/>
		<path class="st2" d="M64.6,235.2c16.1,23.5,43,38.1,72.2,38.1c34,0,65-19.8,79.2-50.5l0.3-0.6c5.1-11.3,7.7-23.3,7.7-35.7
			c0-15.3-4-30.3-11.7-43.4c-7.6-13.2-18.8-24.2-32-31.8c5.3,7.9,8.5,17.4,8.8,27.6c0,0.4,0,0.9,0,1.3c0,0.5,0,0.9,0,1.3
			c-0.2,13.2-2.9,26-8.2,38v0l-0.5,1.2c-8.5,18.6-22.9,34.5-40.7,44.7c-15,8.6-32.1,13.2-49.4,13.2
			C81.5,238.6,72.9,237.4,64.6,235.2z"/>
		
			<linearGradient id="SVGID_3_" gradientUnits="userSpaceOnUse" x1="104.6109" y1="78.2214" x2="13.3698" y2="162.4439" gradientTransform="matrix(1 0 0 -1 0 278)">
			<stop  offset="8.033988e-03" style="stop-color:#086C6A"/>
			<stop  offset="1" style="stop-color:#12877C"/>
		</linearGradient>
		<path class="st3" d="M133.3,216.1c13.1-7.6,24.2-18.8,31.8-32c-7.9,5.3-17.4,8.5-27.6,8.8c-0.8,0-1.8,0-2.7,0
			c-13.5-0.2-26.7-3.1-39.1-8.7l-3.4-1.6v-0.1c-17.1-8.6-31.7-22.3-41.3-39c-8.6-14.9-13.2-32-13.2-49.4c0-8.8,1.1-17.4,3.3-25.7
			C17.6,84.4,3,111.4,3,140.5c0,34.2,20,65.4,51.1,79.5l1.4,0.6c10.9,4.7,22.4,7.1,34.3,7.1C105.1,227.8,120.1,223.7,133.3,216.1z"
			/>
	</g>
	<path class="st4" d="M688.7,105.4c-35.1,0-63.7,27.5-63.7,61.2s28.6,61.2,63.7,61.2c35.1,0,63.7-27.5,63.7-61.2
		C752.4,132.8,723.8,105.4,688.7,105.4z M688.7,196.5c-16.7,0-30.2-13.4-30.2-29.8s13.5-29.8,30.2-29.8s30.2,13.4,30.2,29.8
		S705.4,196.5,688.7,196.5z"/>
	<path class="st4" d="M402.8,227.9c-35.2,0-63.8-27.5-63.8-61.2V77c0-7,4.5-13.3,11.1-15.6l22.9-7.8v58.7l3.4-1.5
		c8.2-3.6,17.1-5.5,26.3-5.5c35.1,0,63.7,27.5,63.7,61.2C466.5,200.4,438,227.9,402.8,227.9z M402.8,136.6
		c-14.3,0-26.5,9.6-29.6,23.3c-0.5,2.1-0.8,4.4-0.8,6.7c0,16.6,13.6,30,30.4,30c16.8,0,30.4-13.5,30.4-30
		C433.2,150.1,419.6,136.6,402.8,136.6z"/>
	<path class="st4" d="M485.3,227.8V105.6h34.1v21.8l4.3-5.9c0.7-1,1.6-2,2.5-2.9c7.3-7.8,18.1-12.5,29.7-13.1v36h-7.8
		c-12.4,0-23,7.6-27.1,19.5c-1.1,3.2-1.7,13.2-1.7,16.7v50.2L485.3,227.8L485.3,227.8z"/>
	<path class="st4" d="M574.6,227.8v-90.1c0-9.9,6.7-18.5,16.2-20.9l17.8-4.6v115.5H574.6z"/>
	<circle class="st4" cx="591.5" cy="74" r="20.4"/>
	<g>
		<path class="st5" d="M879.8,227.8h-27.4v-51.8h-47.7v51.8h-27.4V105.4h27.4v51.2h47.7v-51.2h27.4V227.8z"/>
		<path class="st5" d="M934.2,182.5v45.3H907V105.4h38.2c8.5,0,15.7,0.9,21.7,2.7c6,1.8,10.9,4.4,14.7,7.6c3.8,3.3,6.5,7.1,8.2,11.5
			c1.7,4.4,2.6,9.2,2.6,14.5c0,4-0.5,7.7-1.5,11.3c-1,3.5-2.5,6.8-4.5,9.8c-2,3-4.5,5.7-7.4,8c-2.9,2.4-6.3,4.3-10.1,5.8
			c1.8,1,3.5,2.1,5.1,3.5c1.6,1.4,3,3.1,4.2,5.1l25,42.6h-24.6c-4.6,0-7.8-1.8-9.8-5.4L949,186.9c-0.9-1.6-1.9-2.7-3-3.4
			c-1.2-0.7-2.8-1-4.9-1L934.2,182.5L934.2,182.5z M934.2,163h11c3.7,0,6.9-0.5,9.5-1.5c2.6-1,4.7-2.3,6.4-4.1s2.9-3.8,3.6-6.1
			c0.7-2.3,1.1-4.8,1.1-7.5c0-5.4-1.7-9.6-5-12.6c-3.4-3-8.5-4.5-15.6-4.5h-11L934.2,163L934.2,163z"/>
	</g>
</g>
</svg>
