<svg width="28" height="28" viewBox="0 0 28 28" fill="none" xmlns="http://www.w3.org/2000/svg">
<path d="M28 14C28 21.732 21.732 28 14 28C6.26801 28 0 21.732 0 14C0 6.26801 6.26801 0 14 0C21.732 0 28 6.26801 28 14Z" fill="white"/>
<path fill-rule="evenodd" clip-rule="evenodd" d="M14 26C20.6274 26 26 20.6274 26 14C26 7.37258 20.6274 2 14 2C7.37258 2 2 7.37258 2 14C2 20.6274 7.37258 26 14 26ZM14 28C21.732 28 28 21.732 28 14C28 6.26801 21.732 0 14 0C6.26801 0 0 6.26801 0 14C0 21.732 6.26801 28 14 28Z" fill="#C48D00"/>
<ellipse cx="9.96218" cy="10.3867" rx="1.27273" ry="1.69697" fill="#C38D00"/>
<ellipse cx="17.8909" cy="10.3867" rx="1.27273" ry="1.69697" fill="#C38D00"/>
<path fill-rule="evenodd" clip-rule="evenodd" d="M6.5 18C6.5 17.7239 6.72386 17.5 7 17.5H21C21.2761 17.5 21.5 17.7239 21.5 18C21.5 18.2761 21.2761 18.5 21 18.5H7C6.72386 18.5 6.5 18.2761 6.5 18Z" fill="#C38D00"/>
</svg>
