<svg width="28" height="28" viewBox="0 0 28 28" fill="none" xmlns="http://www.w3.org/2000/svg">
<path d="M28 14C28 21.732 21.732 28 14 28C6.26801 28 0 21.732 0 14C0 6.26801 6.26801 0 14 0C21.732 0 28 6.26801 28 14Z" fill="white"/>
<path fill-rule="evenodd" clip-rule="evenodd" d="M14 26C20.6274 26 26 20.6274 26 14C26 7.37258 20.6274 2 14 2C7.37258 2 2 7.37258 2 14C2 20.6274 7.37258 26 14 26ZM14 28C21.732 28 28 21.732 28 14C28 6.26801 21.732 0 14 0C6.26801 0 0 6.26801 0 14C0 21.732 6.26801 28 14 28Z" fill="#88AD1E"/>
<ellipse cx="9.96218" cy="10.1818" rx="1.27273" ry="1.69697" fill="#88AD1E"/>
<ellipse cx="17.8909" cy="10.1818" rx="1.27273" ry="1.69697" fill="#88AD1E"/>
<path fill-rule="evenodd" clip-rule="evenodd" d="M14 18.5C17.7927 18.5 19.7751 17.5178 20.6464 16.6464C20.8417 16.4512 21.1583 16.4512 21.3536 16.6464C21.5488 16.8417 21.5488 17.1583 21.3536 17.3536C20.2249 18.4822 17.9393 19.5 14 19.5C10.0607 19.5 7.77513 18.4822 6.64645 17.3536C6.45118 17.1583 6.45118 16.8417 6.64645 16.6464C6.84171 16.4512 7.15829 16.4512 7.35355 16.6464C8.22487 17.5178 10.2073 18.5 14 18.5Z" fill="#88AD1E"/>
</svg>
