<svg width="28" height="28" viewBox="0 0 28 28" fill="none" xmlns="http://www.w3.org/2000/svg">
<path d="M28 14C28 21.732 21.732 28 14 28C6.26801 28 0 21.732 0 14C0 6.26801 6.26801 0 14 0C21.732 0 28 6.26801 28 14Z" fill="white"/>
<path fill-rule="evenodd" clip-rule="evenodd" d="M14 26C20.6274 26 26 20.6274 26 14C26 7.37258 20.6274 2 14 2C7.37258 2 2 7.37258 2 14C2 20.6274 7.37258 26 14 26ZM14 28C21.732 28 28 21.732 28 14C28 6.26801 21.732 0 14 0C6.26801 0 0 6.26801 0 14C0 21.732 6.26801 28 14 28Z" fill="#49B408"/>
<ellipse cx="9.96218" cy="10.1818" rx="1.27273" ry="1.69697" fill="#49B408"/>
<ellipse cx="17.8909" cy="10.1818" rx="1.27273" ry="1.69697" fill="#49B408"/>
<path fill-rule="evenodd" clip-rule="evenodd" d="M13.9999 19.5C17.6553 19.5 19.6275 17.6268 20.5527 15.7764C20.6762 15.5294 20.9765 15.4293 21.2235 15.5528C21.4705 15.6763 21.5706 15.9766 21.4471 16.2236C20.3723 18.3732 18.0764 20.5 13.9999 20.5C9.92335 20.5 7.62747 18.3732 6.55268 16.2236C6.42918 15.9766 6.52929 15.6763 6.77628 15.5528C7.02327 15.4293 7.32361 15.5294 7.4471 15.7764C8.37231 17.6268 10.3444 19.5 13.9999 19.5Z" fill="#49B408"/>
</svg>
