<svg width="28" height="28" viewBox="0 0 28 28" fill="none" xmlns="http://www.w3.org/2000/svg">
<path d="M28 14C28 21.732 21.732 28 14 28C6.26801 28 0 21.732 0 14C0 6.26801 6.26801 0 14 0C21.732 0 28 6.26801 28 14Z" fill="white"/>
<path fill-rule="evenodd" clip-rule="evenodd" d="M14 26C20.6274 26 26 20.6274 26 14C26 7.37258 20.6274 2 14 2C7.37258 2 2 7.37258 2 14C2 20.6274 7.37258 26 14 26ZM14 28C21.732 28 28 21.732 28 14C28 6.26801 21.732 0 14 0C6.26801 0 0 6.26801 0 14C0 21.732 6.26801 28 14 28Z" fill="#EE940E"/>
<ellipse cx="9.96218" cy="10.1818" rx="1.27273" ry="1.69697" fill="#EE940E"/>
<ellipse cx="17.8909" cy="10.1818" rx="1.27273" ry="1.69697" fill="#EE940E"/>
<path fill-rule="evenodd" clip-rule="evenodd" d="M14 16.5C10.2073 16.5 8.22487 17.4822 7.35355 18.3536C7.15829 18.5488 6.84171 18.5488 6.64645 18.3536C6.45118 18.1583 6.45118 17.8417 6.64645 17.6464C7.77513 16.5178 10.0607 15.5 14 15.5C17.9393 15.5 20.2249 16.5178 21.3536 17.6464C21.5488 17.8417 21.5488 18.1583 21.3536 18.3536C21.1583 18.5488 20.8417 18.5488 20.6464 18.3536C19.7751 17.4822 17.7927 16.5 14 16.5Z" fill="#EE940E"/>
</svg>
