<svg width="28" height="28" viewBox="0 0 28 28" fill="none" xmlns="http://www.w3.org/2000/svg">
<path d="M28 14C28 21.732 21.732 28 14 28C6.26801 28 0 21.732 0 14C0 6.26801 6.26801 0 14 0C21.732 0 28 6.26801 28 14Z" fill="white"/>
<path fill-rule="evenodd" clip-rule="evenodd" d="M14 26C20.6274 26 26 20.6274 26 14C26 7.37258 20.6274 2 14 2C7.37258 2 2 7.37258 2 14C2 20.6274 7.37258 26 14 26ZM14 28C21.732 28 28 21.732 28 14C28 6.26801 21.732 0 14 0C6.26801 0 0 6.26801 0 14C0 21.732 6.26801 28 14 28Z" fill="#F81111"/>
<ellipse cx="9.96218" cy="10.1818" rx="1.27273" ry="1.69697" fill="#F81111"/>
<ellipse cx="17.8909" cy="10.1818" rx="1.27273" ry="1.69697" fill="#F81111"/>
<path fill-rule="evenodd" clip-rule="evenodd" d="M9.72953 16.7719C8.68643 17.5713 7.95158 18.7268 7.47448 20.1581C7.38715 20.4201 7.10399 20.5617 6.84202 20.4743C6.58005 20.387 6.43847 20.1039 6.52579 19.8419C7.0487 18.2732 7.88084 16.9287 9.12125 15.9781C10.3651 15.0249 11.9774 14.5 14.0001 14.5C16.0229 14.5 17.6352 15.0249 18.879 15.9781C20.1194 16.9287 20.9516 18.2732 21.4745 19.8419C21.5618 20.1039 21.4202 20.387 21.1582 20.4743C20.8963 20.5617 20.6131 20.4201 20.5258 20.1581C20.0487 18.7268 19.3138 17.5713 18.2707 16.7719C17.231 15.9751 15.8434 15.5 14.0001 15.5C12.1569 15.5 10.7692 15.9751 9.72953 16.7719Z" fill="#F81111"/>
</svg>
