<svg width="28" height="28" viewBox="0 0 28 28" fill="none" xmlns="http://www.w3.org/2000/svg">
<path d="M28 14C28 21.732 21.732 28 14 28C6.26801 28 0 21.732 0 14C0 6.26801 6.26801 0 14 0C21.732 0 28 6.26801 28 14Z" fill="white"/>
<path fill-rule="evenodd" clip-rule="evenodd" d="M14 26C20.6274 26 26 20.6274 26 14C26 7.37258 20.6274 2 14 2C7.37258 2 2 7.37258 2 14C2 20.6274 7.37258 26 14 26ZM14 28C21.732 28 28 21.732 28 14C28 6.26801 21.732 0 14 0C6.26801 0 0 6.26801 0 14C0 21.732 6.26801 28 14 28Z" fill="#0D9C3E"/>
<ellipse cx="9.96218" cy="10.1818" rx="1.27273" ry="1.69697" fill="#0D9C3E"/>
<ellipse cx="17.8909" cy="10.1818" rx="1.27273" ry="1.69697" fill="#0D9C3E"/>
<path fill-rule="evenodd" clip-rule="evenodd" d="M18.2705 19.2281C19.3136 18.4287 20.0484 17.2732 20.5255 15.8419C20.6128 15.5799 20.896 15.4383 21.158 15.5257C21.42 15.613 21.5615 15.8961 21.4742 16.1581C20.9513 17.7268 20.1192 19.0713 18.8788 20.0219C17.6349 20.9751 16.0226 21.5 13.9999 21.5C11.9771 21.5 10.3648 20.9751 9.12098 20.0219C7.88057 19.0713 7.04842 17.7268 6.52552 16.1581C6.4382 15.8961 6.57978 15.613 6.84175 15.5257C7.10372 15.4383 7.38688 15.5799 7.47421 15.8419C7.9513 17.2732 8.68616 18.4287 9.72926 19.2281C10.769 20.0249 12.1566 20.5 13.9999 20.5C15.8431 20.5 17.2308 20.0249 18.2705 19.2281Z" fill="#0D9C3E"/>
</svg>
