<svg width="28" height="28" viewBox="0 0 28 28" fill="none" xmlns="http://www.w3.org/2000/svg">
<path d="M28 14C28 21.732 21.732 28 14 28C6.26801 28 0 21.732 0 14C0 6.26801 6.26801 0 14 0C21.732 0 28 6.26801 28 14Z" fill="white"/>
<path fill-rule="evenodd" clip-rule="evenodd" d="M14 26C20.6274 26 26 20.6274 26 14C26 7.37258 20.6274 2 14 2C7.37258 2 2 7.37258 2 14C2 20.6274 7.37258 26 14 26ZM14 28C21.732 28 28 21.732 28 14C28 6.26801 21.732 0 14 0C6.26801 0 0 6.26801 0 14C0 21.732 6.26801 28 14 28Z" fill="#FF6B18"/>
<ellipse cx="9.96218" cy="10.1818" rx="1.27273" ry="1.69697" fill="#FF6B18"/>
<ellipse cx="17.8909" cy="10.1818" rx="1.27273" ry="1.69697" fill="#FF6B18"/>
<path fill-rule="evenodd" clip-rule="evenodd" d="M14.0001 15.5C10.3447 15.5 8.37252 17.3732 7.44732 19.2236C7.32383 19.4706 7.02349 19.5707 6.7765 19.4472C6.52951 19.3237 6.4294 19.0234 6.5529 18.7764C7.62769 16.6268 9.92357 14.5 14.0001 14.5C18.0767 14.5 20.3725 16.6268 21.4473 18.7764C21.5708 19.0234 21.4707 19.3237 21.2237 19.4472C20.9767 19.5707 20.6764 19.4706 20.5529 19.2236C19.6277 17.3732 17.6556 15.5 14.0001 15.5Z" fill="#FF6B18"/>
</svg>
