<svg width="61" height="50" viewBox="0 0 61 50" fill="none" xmlns="http://www.w3.org/2000/svg">
<path d="M6.5 23.5C6.5 28.1875 8.46875 32.4062 11.8438 35.7812C10.625 40.4688 6.6875 44.6875 6.6875 44.7812C6.5 44.9688 6.40625 45.3438 6.5 45.625C6.6875 45.9062 6.875 46 7.25 46C13.4375 46 18.125 43.0938 20.375 41.2188C23.4688 42.3438 26.8438 43 30.5 43C33.0312 43 35.4688 42.7188 37.8125 42.0625L7.25 18.5312C6.78125 20.125 6.5 21.8125 6.5 23.5ZM59.8438 44.0312L49.1562 35.6875C52.4375 32.4062 54.5 28.1875 54.5 23.5C54.5 12.8125 43.7188 4 30.5 4C24.3125 4 18.7812 5.96875 14.5625 8.96875L4.71875 1.375C4.0625 0.8125 3.125 1 2.65625 1.65625L0.78125 4C0.3125 4.65625 0.40625 5.59375 1.0625 6.0625L56.1875 48.7188C56.8438 49.1875 57.7812 49.0938 58.3438 48.4375L60.125 46.0938C60.6875 45.4375 60.5 44.5 59.8438 44.0312Z" fill="#4A5CFD"/>
</svg>
