<svg width="47" height="48" viewBox="0 0 47 48" fill="none" xmlns="http://www.w3.org/2000/svg">
<path d="M46.75 24C46.75 11.25 36.25 0.75 23.5 0.75C10.6562 0.75 0.25 11.25 0.25 24C0.25 36.8438 10.6562 47.25 23.5 47.25C36.25 47.25 46.75 36.8438 46.75 24ZM20.7812 36.375C20.2188 36.9375 19.1875 36.9375 18.625 36.375L8.875 26.625C8.3125 26.0625 8.3125 25.0312 8.875 24.4688L11.0312 22.4062C11.5938 21.75 12.5312 21.75 13.0938 22.4062L19.75 28.9688L33.8125 14.9062C34.375 14.25 35.3125 14.25 35.875 14.9062L38.0312 16.9688C38.5938 17.5312 38.5938 18.5625 38.0312 19.125L20.7812 36.375Z" fill="#02A284"/>
</svg>
