<svg width="20" height="16" viewBox="0 0 20 16" fill="none" xmlns="http://www.w3.org/2000/svg">
<path d="M15.5 13.5C16.0312 13.5 16.5 13.0625 16.5 12.5C16.5 11.9688 16.0312 11.5 15.5 11.5C14.9375 11.5 14.5 11.9688 14.5 12.5C14.5 13.0625 14.9375 13.5 15.5 13.5ZM9.5 14.5H1.5V13.7188C1.5 12.2188 2.6875 11.0312 4.1875 11C4.65625 11 5.375 11.5 7 11.5C8.3125 11.5 9.15625 11.1562 9.5 11.0625V10C9.5 9.84375 9.5 9.6875 9.53125 9.53125C8.71875 9.625 8.28125 10 7 10C5.5 10 5.09375 9.5 4.1875 9.5C1.875 9.53125 0 11.4062 0 13.7188V14.5C0 15.3438 0.65625 16 1.5 16H9.6875C9.4375 15.4375 9.5 15.0625 9.5 14.5ZM19 9H18V7.5C18 6.125 16.875 5 15.5 5C14.0938 5 13 6.125 13 7.5V9H12C11.4375 9 11 9.46875 11 10V15C11 15.5625 11.4375 16 12 16H19C19.5312 16 20 15.5625 20 15V10C20 9.46875 19.5312 9 19 9ZM14.5 7.5C14.5 6.96875 14.9375 6.5 15.5 6.5C16.0312 6.5 16.5 6.96875 16.5 7.5V9H14.5V7.5ZM18.5 14.5H12.5V10.5H18.5V14.5ZM7 0C4.5 0 2.5 2.03125 2.5 4.5C2.5 7 4.5 9 7 9C9.46875 9 11.5 7 11.5 4.5C11.5 2.03125 9.46875 0 7 0ZM7 7.5C5.34375 7.5 4 6.15625 4 4.5C4 2.875 5.34375 1.5 7 1.5C8.625 1.5 10 2.875 10 4.5C9.96875 6.15625 8.625 7.5 7 7.5Z" fill="#272932"/>
</svg>
