<svg width="20" height="16" viewBox="0 0 20 16" fill="none" xmlns="http://www.w3.org/2000/svg">
<path d="M7 0C4.5 0 2.5 2.03125 2.5 4.5C2.5 7 4.5 9 7 9C9.46875 9 11.5 7 11.5 4.5C11.5 2.03125 9.46875 0 7 0ZM7 7.5C5.34375 7.5 4 6.15625 4 4.5C4 2.875 5.34375 1.5 7 1.5C8.625 1.5 10 2.875 10 4.5C10 6.15625 8.625 7.5 7 7.5ZM9.5 14.5H1.5V13.7188C1.5 12.2188 2.6875 11.0312 4.1875 11C4.65625 11 5.375 11.5 7 11.5C8.3125 11.5 9.15625 11.1562 9.5 11.0625V10C9.5 9.84375 9.5 9.6875 9.53125 9.53125C8.71875 9.625 8.28125 10 7 10C5.5 10 5.09375 9.5 4.1875 9.5C1.875 9.53125 0 11.4062 0 13.7188V14.5C0 15.3438 0.65625 16 1.5 16H9.6875C9.4375 15.4375 9.5 15.0625 9.5 14.5ZM19 9H14.5V6.53125C14.5 6 14.9062 5.53125 15.4688 5.53125C15.4688 5.53125 15.4688 5.5 15.5 5.5C16.0312 5.5 16.5 5.96875 16.5 6.5C16.5 6.78125 16.7188 7 17 7H17.5312C17.7812 7 18 6.8125 18 6.53125C18 5.1875 16.9375 4.0625 15.5625 4.03125C15.5312 4.03125 15.5 4.03125 15.4688 4.03125C14.0938 4.03125 13 5.125 13 6.5V9H12C11.4375 9 11 9.46875 11 10V15C11 15.5625 11.4375 16 12 16H19C19.5312 16 20 15.5625 20 15V10C20 9.46875 19.5312 9 19 9ZM18.5 14.5H12.5V10.5H18.5V14.5ZM15.5 13.5C16.0312 13.5 16.5 13.0625 16.5 12.5C16.5 11.9688 16.0312 11.5 15.5 11.5C14.9375 11.5 14.5 11.9688 14.5 12.5C14.5 13.0625 14.9375 13.5 15.5 13.5Z" fill="#272932"/>
</svg>
